#!OML:ASF X:\für Bonn\!DataBase\2005_08_11_Bastian_Final\c3d\Bastian.ASF
:FULLY-SPECIFIED
:DEGREES
62
root -7.24459 16.9883 6.32652 903.063 37.1986 -169.162
lowerback 17.83 -0.940423 1.14387
upperback 16.6831 1.69552 3.20763
thorax 8.16872 1.92756 2.82348
lowerneck -16.436 -13.3815 -23.1438
upperneck -7.54299 -13.7055 31.396
head 5.01659 -5.15198 12.8373
rclavicle -4.42793e-014 2.27608e-014
rhumerus -19.2753 13.8893 -83.976
rradius 61.116
rwrist 2.85587
rhand -14.4765 9.74448
rfingers 7.12502
rthumb 11.6696 -19.9105
lclavicle -4.42793e-014 2.27608e-014
lhumerus -16.2688 -4.92431 87.6567
lradius 19.8165
lwrist 13.547
lhand -12.7301 -9.7745
lfingers 7.12502
lthumb 13.3534 19.7776
rfemur 11.9123 -7.75781 30.3235
rtibia 34.6849
rfoot -16.1619 10.9948
rtoes -16.698
lfemur -32.2502 0.202361 -9.59905
ltibia 38.7716
lfoot 7.24351 -12.5369
ltoes -19.481
63
root -7.1747 16.9813 6.2338 903.208 36.9823 -169.267
lowerback 17.8972 -0.890382 0.930998
upperback 16.5853 1.72054 3.16616
thorax 8.01418 1.91369 2.88447
lowerneck -16.4732 -13.5068 -23.2726
upperneck -7.61002 -13.8483 31.6132
head 5.08374 -5.20672 12.9158
rclavicle -9.38264e-014 4.83047e-014
rhumerus -19.4568 13.7556 -83.9447
rradius 60.8459
rwrist 2.92736
rhand -14.3229 9.73876
rfingers 7.12502
rthumb 11.8177 -19.9078
lclavicle -9.38264e-014 4.83047e-014
lhumerus -16.074 -4.77054 87.6584
lradius 20.0495
lwrist 13.6504
lhand -12.7715 -9.80814
lfingers 7.12502
lthumb 13.3134 19.7466
rfemur 11.89 -7.74681 30.3318
rtibia 34.9137
rfoot -15.8653 10.7792
rtoes -18.4293
lfemur -32.2565 0.195476 -9.80212
ltibia 39.155
lfoot 6.4813 -12.7592
ltoes -18.502
64
root -7.10492 16.9764 6.14199 903.325 36.7127 -169.408
lowerback 17.9777 -0.852348 0.700251
upperback 16.4739 1.72565 3.12727
thorax 7.83761 1.88782 2.95928
lowerneck -16.4012 -13.615 -23.44
upperneck -7.72797 -13.9759 31.8676
head 5.12392 -5.26381 13.0226
rclavicle -2.14687e-014 1.90833e-014
rhumerus -19.6704 13.642 -83.9232
rradius 60.5724
rwrist 2.97573
rhand -14.1617 9.67311
rfingers 7.12502
rthumb 11.9731 -19.9645
lclavicle -2.14687e-014 1.90833e-014
lhumerus -15.872 -4.47169 87.642
lradius 20.2431
lwrist 13.5819
lhand -12.7811 -9.93869
lfingers 7.12502
lthumb 13.3042 19.6166
rfemur 11.8514 -7.75899 30.3189
rtibia 35.1792
rfoot -15.5274 10.5649
rtoes -20.0748
lfemur -32.2652 0.140985 -10.021
ltibia 39.5215
lfoot 5.80125 -12.9385
ltoes -17.3063
65
root -7.03429 16.9742 6.05043 903.409 36.4445 -169.579
lowerback 18.0907 -0.807575 0.439177
upperback 16.3593 1.73705 3.08741
thorax 7.64057 1.8633 3.04838
lowerneck -16.3294 -13.7278 -23.6105
upperneck -7.83387 -14.1134 32.1021
head 5.16828 -5.32664 13.1198
rclavicle 5.54609e-014 4.50247e-014
rhumerus -19.8838 13.5783 -83.8888
rradius 60.2484
rwrist 2.95315
rhand -14.1072 9.61761
rfingers 7.12502
rthumb 12.0257 -20.0169
lclavicle 5.54609e-014 4.50247e-014
lhumerus -15.7109 -4.49956 87.6412
lradius 20.5595
lwrist 13.8585
lhand -12.7585 -10.0703
lfingers 7.12502
lthumb 13.3259 19.4836
rfemur 11.8008 -7.70827 30.2864
rtibia 35.4752
rfoot -15.1042 10.4254
rtoes -21.2976
lfemur -32.2504 0.0710764 -10.257
ltibia 39.866
lfoot 5.13189 -13.1421
ltoes -16.5901
66
root -6.96305 16.9733 5.95802 903.482 36.1479 -169.751
lowerback 18.1972 -0.774939 0.165042
upperback 16.2487 1.73081 3.07613
thorax 7.45279 1.8281 3.17886
lowerneck -16.2024 -13.8226 -23.8322
upperneck -7.97817 -14.2203 32.3385
head 5.18935 -5.38016 13.2358
rclavicle -1.13804e-013 4.87022e-014
rhumerus -20.1204 13.5303 -83.8071
rradius 59.9094
rwrist 2.94357
rhand -14.0178 9.55114
rfingers 7.12502
rthumb 12.1119 -20.0783
lclavicle -1.13804e-013 4.87022e-014
lhumerus -15.5746 -4.54632 87.6947
lradius 20.9188
lwrist 14.0931
lhand -12.7511 -10.1621
lfingers 7.12502
lthumb 13.3331 19.3913
rfemur 11.7406 -7.62819 30.2437
rtibia 35.8021
rfoot -14.5699 10.3799
rtoes -21.7954
lfemur -32.215 -0.0263677 -10.487
ltibia 40.1925
lfoot 4.48552 -13.3086
ltoes -15.8649
67
root -6.89229 16.9742 5.86558 903.552 35.8453 -169.923
lowerback 18.3084 -0.737898 -0.0527435
upperback 16.1285 1.73548 3.03809
thorax 7.25228 1.80574 3.24695
lowerneck -16.0079 -13.9176 -24.0185
upperneck -8.15412 -14.3443 32.5997
head 5.19735 -5.4485 13.3532
rclavicle 3.51849e-014 8.74653e-015
rhumerus -20.3466 13.3581 -83.7937
rradius 59.467
rwrist 2.98288
rhand -14.0054 9.5047
rfingers 7.12502
rthumb 12.1239 -20.124
lclavicle 3.51849e-014 8.74653e-015
lhumerus -15.4493 -4.76487 87.7295
lradius 21.2887
lwrist 14.3791
lhand -12.7553 -10.3271
lfingers 7.12502
lthumb 13.3291 19.2266
rfemur 11.65 -7.53526 30.1978
rtibia 36.1631
rfoot -13.9876 10.3788
rtoes -21.9593
lfemur -32.1622 -0.177726 -10.6987
ltibia 40.4918
lfoot 3.86979 -13.4493
ltoes -15.1955
68
root -6.82118 16.9756 5.77301 903.61 35.5179 -170.096
lowerback 18.4016 -0.71812 -0.302906
upperback 16.0409 1.71996 3.03009
thorax 7.10078 1.77132 3.37168
lowerneck -15.84 -14.0131 -24.2235
upperneck -8.34062 -14.4567 32.8507
head 5.20409 -5.50905 13.472
rclavicle -2.38542e-015 -2.45499e-014
rhumerus -20.4463 13.262 -83.7362
rradius 58.9079
rwrist 3.04833
rhand -13.9954 9.46219
rfingers 7.12502
rthumb 12.1336 -20.166
lclavicle -2.38542e-015 -2.45499e-014
lhumerus -15.2864 -5.19921 87.8381
lradius 21.653
lwrist 14.8199
lhand -12.9056 -10.4794
lfingers 7.12502
lthumb 13.1842 19.0837
rfemur 11.5549 -7.45815 30.1593
rtibia 36.5559
rfoot -13.4141 10.3614
rtoes -22.1643
lfemur -32.1029 -0.366478 -10.8979
ltibia 40.7767
lfoot 3.25205 -13.5831
ltoes -14.6391
69
root -6.7503 16.9783 5.67982 903.638 35.1951 -170.298
lowerback 18.5146 -0.690241 -0.522603
upperback 15.9388 1.71647 2.99243
thorax 6.92257 1.7476 3.44436
lowerneck -15.58 -14.0757 -24.3564
upperneck -8.56736 -14.5441 33.073
head 5.16811 -5.56889 13.5738
rclavicle 3.47873e-015 1.88845e-014
rhumerus -20.5797 13.0517 -83.7543
rradius 58.3021
rwrist 3.17256
rhand -14.0334 9.4183
rfingers 7.12502
rthumb 12.0969 -20.212
lclavicle 3.47873e-015 1.88845e-014
lhumerus -15.1496 -5.73441 87.9299
lradius 22.0443
lwrist 15.2579
lhand -13.0276 -10.6289
lfingers 7.12502
lthumb 13.0666 18.9418
rfemur 11.4514 -7.40595 30.0793
rtibia 36.992
rfoot -12.8224 10.354
rtoes -22.3934
lfemur -32.0036 -0.550367 -11.1225
ltibia 41.0347
lfoot 2.67592 -13.7266
ltoes -14.0563
70
root -6.67959 16.9821 5.58659 903.693 34.8646 -170.437
lowerback 18.63 -0.663758 -0.697438
upperback 15.8463 1.71949 2.98925
thorax 6.7542 1.7312 3.52926
lowerneck -15.3297 -14.1516 -24.5109
upperneck -8.79338 -14.6464 33.2904
head 5.13957 -5.63531 13.6743
rclavicle 6.31141e-014 -2.56432e-014
rhumerus -20.6788 12.7969 -83.7335
rradius 57.65
rwrist 3.29313
rhand -14.0309 9.39681
rfingers 7.12502
rthumb 12.0994 -20.2334
lclavicle 6.31141e-014 -2.56432e-014
lhumerus -14.9874 -6.293 88.0613
lradius 22.4221
lwrist 15.6552
lhand -13.1485 -10.7416
lfingers 7.12502
lthumb 12.95 18.8366
rfemur 11.3251 -7.40365 30.0489
rtibia 37.469
rfoot -12.2143 10.3267
rtoes -22.767
lfemur -31.8972 -0.659905 -11.3002
ltibia 41.2761
lfoot 2.10314 -13.9619
ltoes -13.6696
71
root -6.60938 16.987 5.49371 903.728 34.5154 -170.605
lowerback 18.7352 -0.636752 -0.839668
upperback 15.7605 1.72924 2.96263
thorax 6.59922 1.72351 3.57053
lowerneck -15.0216 -14.232 -24.6178
upperneck -9.07518 -14.7635 33.5251
head 5.08976 -5.71516 13.7707
rclavicle -5.68524e-014 4.81059e-014
rhumerus -20.7827 12.4794 -83.731
rradius 56.975
rwrist 3.47445
rhand -14.0738 9.38874
rfingers 7.12502
rthumb 12.0579 -20.2439
lclavicle -5.68524e-014 4.81059e-014
lhumerus -14.8462 -6.85958 88.1787
lradius 22.8929
lwrist 15.8674
lhand -13.2771 -10.7299
lfingers 7.12502
lthumb 12.8261 18.856
rfemur 11.1523 -7.44016 29.995
rtibia 38.0043
rfoot -11.5128 10.3053
rtoes -23.3694
lfemur -31.775 -0.827875 -11.4949
ltibia 41.4861
lfoot 1.51975 -14.1515
ltoes -13.2371
72
root -6.53959 16.9935 5.40018 903.715 34.1804 -170.799
lowerback 18.8656 -0.617341 -0.985352
upperback 15.6754 1.72942 2.9164
thorax 6.43382 1.71265 3.59326
lowerneck -14.6818 -14.2853 -24.6919
upperneck -9.35493 -14.8536 33.7367
head 5.02194 -5.78695 13.8596
rclavicle 9.36276e-014 -4.7112e-014
rhumerus -20.9104 12.1845 -83.7503
rradius 56.3137
rwrist 3.65341
rhand -14.14 9.33166
rfingers 7.12502
rthumb 11.9941 -20.3047
lclavicle 9.36276e-014 -4.7112e-014
lhumerus -14.6768 -7.30992 88.269
lradius 23.3097
lwrist 15.9724
lhand -13.3768 -10.7362
lfingers 7.12502
lthumb 12.7299 18.8558
rfemur 10.9677 -7.513 29.9079
rtibia 38.5938
rfoot -10.7207 10.2446
rtoes -24.0784
lfemur -31.5947 -0.99816 -11.707
ltibia 41.6783
lfoot 0.980381 -14.3393
ltoes -12.6094
73
root -6.4696 17.0007 5.30647 903.721 33.8314 -170.996
lowerback 18.944 -0.590902 -1.13703
upperback 15.6137 1.74124 2.88952
thorax 6.3213 1.70687 3.64206
lowerneck -14.3821 -14.3551 -24.7703
upperneck -9.63886 -14.9555 33.9655
head 4.96667 -5.85997 13.9527
rclavicle 2.83268e-014 2.16675e-014
rhumerus -21.0005 11.8819 -83.721
rradius 55.6417
rwrist 3.81204
rhand -14.245 9.27281
rfingers 7.12502
rthumb 11.8929 -20.3694
lclavicle 2.83268e-014 2.16675e-014
lhumerus -14.4691 -7.80318 88.3855
lradius 23.77
lwrist 16.0047
lhand -13.4444 -10.6713
lfingers 7.12502
lthumb 12.6647 18.9247
rfemur 10.7081 -7.59648 29.838
rtibia 39.2439
rfoot -9.79403 10.1513
rtoes -24.7059
lfemur -31.4318 -1.23651 -11.9049
ltibia 41.8486
lfoot 0.415931 -14.4776
ltoes -12.1652
74
root -6.40015 17.0083 5.21292 903.686 33.5054 -171.188
lowerback 19.065 -0.55898 -1.26947
upperback 15.543 1.76239 2.8532
thorax 6.17641 1.70888 3.66674
lowerneck -13.9962 -14.3983 -24.7975
upperneck -9.97388 -15.0319 34.1617
head 4.86643 -5.9318 14.032
rclavicle -5.50634e-014 2.48481e-014
rhumerus -21.2149 11.5955 -83.6866
rradius 55.1351
rwrist 3.91007
rhand -14.2353 9.13362
rfingers 7.12502
rthumb 11.9022 -20.5081
lclavicle -5.50634e-014 2.48481e-014
lhumerus -14.2922 -8.32819 88.4809
lradius 24.2777
lwrist 16.0753
lhand -13.4013 -10.5858
lfingers 7.12502
lthumb 12.7063 19.0076
rfemur 10.4858 -7.66577 29.7758
rtibia 39.8836
rfoot -8.74853 9.98515
rtoes -25.285
lfemur -31.1827 -1.45496 -12.1037
ltibia 41.9588
lfoot -0.118791 -14.6264
ltoes -11.8488
75
root -6.33166 17.0145 5.11976 903.653 33.1513 -171.379
lowerback 19.1557 -0.556032 -1.38716
upperback 15.5006 1.75325 2.82324
thorax 6.08236 1.69813 3.69703
lowerneck -13.7016 -14.4614 -24.8478
upperneck -10.2704 -15.1212 34.382
head 4.80216 -5.99971 14.1204
rclavicle -6.44062e-014 3.598e-014
rhumerus -21.3805 11.3953 -83.6146
rradius 54.6345
rwrist 3.97607
rhand -14.2623 9.00237
rfingers 7.12502
rthumb 11.8762 -20.6408
lclavicle -6.44062e-014 3.598e-014
lhumerus -14.0807 -8.94932 88.588
lradius 24.8299
lwrist 16.2476
lhand -13.4012 -10.4698
lfingers 7.12502
lthumb 12.7065 19.1236
rfemur 10.2229 -7.75743 29.7295
rtibia 40.5752
rfoot -7.73244 9.79712
rtoes -25.8855
lfemur -30.9467 -1.7388 -12.2882
ltibia 42.0573
lfoot -0.619518 -14.715
ltoes -11.3475
76
root -6.26176 17.0359 5.02533 903.61 32.8319 -171.533
lowerback 19.2814 -0.536359 -1.47
upperback 15.45 1.77017 2.7938
thorax 5.95911 1.70421 3.70305
lowerneck -13.4043 -14.5157 -24.839
upperneck -10.5336 -15.2133 34.552
head 4.73451 -6.07202 14.1763
rclavicle 4.78077e-014 -2.3059e-014
rhumerus -21.5907 11.1572 -83.5509
rradius 54.1405
rwrist 4.00616
rhand -14.2581 8.84813
rfingers 7.12502
rthumb 11.8802 -20.7948
lclavicle 4.78077e-014 -2.3059e-014
lhumerus -13.9142 -9.6448 88.6828
lradius 25.4617
lwrist 16.4894
lhand -13.3858 -10.3329
lfingers 7.12502
lthumb 12.7213 19.2596
rfemur 9.9803 -7.86354 29.6908
rtibia 41.2692
rfoot -6.63241 9.57943
rtoes -26.1865
lfemur -30.6026 -2.00353 -12.4389
ltibia 42.1177
lfoot -1.16814 -14.8389
ltoes -10.9464
